<svg xmlns="http://www.w3.org/2000/svg" viewBox="295 400 1380 250" preserveAspectRatio="xMidYMid meet" role="img" aria-label="NextStep">
  <g fill="#3F72AF">
    <path d="M420.06,615.19l-117.78-172.03v172.03h-19.68v-201.83h23.33l116.66,169.78v-169.78h19.96v201.83h-22.49Z"/>
    <path d="M526.87,618.01c-13.87,0-26-3.23-36.4-9.7-10.4-6.47-18.46-15.6-24.17-27.41-5.72-11.81-8.57-25.48-8.57-41.04,0-14.43,2.95-27.31,8.85-38.65,5.9-11.34,13.96-20.33,24.17-26.99,10.21-6.65,21.88-9.98,35-9.98,10.49,0,20,2.02,28.53,6.04,8.52,4.03,15.74,9.7,21.64,17.01s10.3,15.88,13.21,25.72c2.9,9.84,3.89,20.76,2.95,32.75h-123.68v-13.49h103.16c-.75-16.68-5.2-29.66-13.35-38.93s-19.07-13.91-32.75-13.91c-9.56,0-17.95,2.49-25.16,7.45-7.22,4.97-12.89,11.95-17.01,20.94-4.12,9-6.18,19.68-6.18,32.05s1.97,23.85,5.9,33.31c3.94,9.46,9.6,16.73,17.01,21.79,7.4,5.06,16.26,7.59,26.56,7.59,12.37,0,22.63-3.33,30.78-9.98,8.15-6.65,13.44-15.79,15.88-27.41h19.4c-3.37,16.3-10.92,29.19-22.63,38.65-11.71,9.47-26.1,14.2-43.15,14.2Z"/>
    <path d="M607.48,615.19h-21.93l54.53-75.9-51.16-72.24h22.49l41.88,59.87,42.17-59.87h21.08l-50.6,72.8,53.97,75.33h-22.49l-45.26-63.53-44.69,63.53Z"/>
    <path d="M823.09,596.36v17.43c-3.75,1.69-7.31,2.81-10.68,3.37-3.37.56-6.94.84-10.68.84-8.06,0-15.37-1.5-21.93-4.5-6.56-3-11.76-7.77-15.6-14.34-3.84-6.56-5.76-15.18-5.76-25.86v-89.67h-34.86v-16.58h34.86v-43.85h19.68v43.85h46.38v16.58h-46.38v85.45c0,11.62,2.57,19.68,7.73,24.17,5.15,4.5,11.76,6.75,19.82,6.75,3.18,0,6.14-.28,8.85-.84,2.71-.56,5.57-1.5,8.57-2.81Z"/>
    <path d="M980.66,559.26c0,10.68-2.81,20.48-8.43,29.38-5.62,8.9-13.87,16.02-24.74,21.36-10.87,5.34-24.17,8.01-39.92,8.01s-29.19-2.72-40.34-8.15c-11.15-5.43-19.77-12.97-25.86-22.63-6.09-9.65-9.51-20.84-10.26-33.59h21.36c1.12,14.24,6.18,25.68,15.18,34.29,9,8.62,22.21,12.93,39.64,12.93,9.56,0,18.22-1.55,26-4.64,7.77-3.09,13.91-7.59,18.41-13.49,4.5-5.9,6.75-12.79,6.75-20.66,0-10.49-3.19-18.41-9.56-23.75-6.37-5.34-16.68-9.51-30.92-12.51l-25.58-5.06c-6.75-1.31-13.35-3.18-19.82-5.62-6.47-2.43-12.32-5.67-17.57-9.7-5.25-4.03-9.47-9.09-12.65-15.18-3.19-6.09-4.78-13.54-4.78-22.35,0-10.87,2.9-20.61,8.71-29.23,5.81-8.62,13.87-15.46,24.17-20.52,10.3-5.06,22.21-7.59,35.7-7.59s25.2,2.63,35.7,7.87c10.49,5.25,19.02,12.56,25.58,21.93,6.56,9.37,10.12,20.52,10.68,33.45h-21.64c-.38-9-2.77-16.96-7.17-23.89-4.41-6.93-10.22-12.37-17.43-16.3-7.22-3.94-15.7-5.9-25.44-5.9-10.31,0-18.97,1.88-26,5.62-7.03,3.75-12.37,8.53-16.02,14.34-3.65,5.81-5.48,12.18-5.48,19.12,0,7.87,2.01,14.15,6.04,18.83,4.03,4.69,9.28,8.29,15.74,10.82,6.47,2.53,13.44,4.55,20.94,6.04l25.58,5.34c17.05,3.56,30.22,9.23,39.49,17.01,9.28,7.78,13.91,19.26,13.91,34.43Z"/>
    <path d="M1088.78,596.36v17.43c-3.75,1.69-7.31,2.81-10.68,3.37-3.37.56-6.93.84-10.68.84-8.06,0-15.37-1.5-21.93-4.5-6.56-3-11.76-7.77-15.6-14.34-3.84-6.56-5.76-15.18-5.76-25.86v-89.67h-34.86v-16.58h34.86v-43.85h19.68v43.85h46.38v16.58h-46.38v85.45c0,11.62,2.57,19.68,7.73,24.17,5.15,4.5,11.76,6.75,19.82,6.75,3.18,0,6.14-.28,8.86-.84,2.71-.56,5.57-1.5,8.57-2.81Z"/>
    <path d="M1158.9,618.01c-13.87,0-26-3.23-36.4-9.7-10.4-6.47-18.46-15.6-24.17-27.41-5.72-11.81-8.57-25.48-8.57-41.04,0-14.43,2.95-27.31,8.85-38.65,5.9-11.34,13.96-20.33,24.17-26.99,10.21-6.65,21.88-9.98,35-9.98,10.49,0,20,2.02,28.53,6.04,8.53,4.03,15.74,9.7,21.64,17.01,5.9,7.31,10.3,15.88,13.21,25.72,2.9,9.84,3.89,20.76,2.95,32.75h-123.68v-13.49h103.16c-.75-16.68-5.2-29.66-13.35-38.93-8.15-9.28-19.07-13.91-32.75-13.91-9.56,0-17.95,2.49-25.16,7.45-7.21,4.97-12.89,11.95-17.01,20.94-4.12,9-6.18,19.68-6.18,32.05s1.97,23.85,5.9,33.31c3.94,9.46,9.6,16.73,17.01,21.79,7.4,5.06,16.26,7.59,26.56,7.59,12.37,0,22.63-3.33,30.78-9.98,8.15-6.65,13.44-15.79,15.88-27.41h19.4c-3.37,16.3-10.92,29.19-22.63,38.65-11.71,9.47-26.1,14.2-43.15,14.2Z"/>
    <path d="M1375.5,540.98c0,15.18-2.67,28.58-8.01,40.2-5.34,11.62-12.84,20.66-22.49,27.13-9.65,6.46-21.13,9.7-34.43,9.7-11.06,0-21.08-2.9-30.08-8.71-9-5.81-16.02-13.96-21.08-24.46v84.61h-19.68v-202.39h18.27v32.04c5.06-11.05,12.27-19.63,21.65-25.72,9.37-6.09,19.68-9.14,30.92-9.14,13.12,0,24.55,3.23,34.29,9.7,9.74,6.46,17.29,15.46,22.63,26.99s8.01,24.88,8.01,40.06ZM1355.54,540.98c0-18.74-4.45-33.35-13.35-43.85-8.9-10.49-20.57-15.74-35-15.74-9,0-17.15,2.35-24.46,7.03-7.31,4.69-13.07,11.43-17.29,20.24-4.22,8.81-6.32,19.58-6.32,32.33s2.06,22.77,6.18,31.76c4.12,9,9.84,15.93,17.15,20.8,7.31,4.88,15.55,7.31,24.74,7.31,14.43,0,26.09-5.24,35-15.74,8.9-10.49,13.35-25.2,13.35-44.13Z"/>
  </g>
  <g fill="#112D4E">
    <path d="M1613.67,631c-6.26,0-11.33-5.04-11.33-11.25v-164.93c0-8.61-7.96-15.61-17.74-15.61h-162.75c-6.26,0-11.33-5.04-11.33-11.25s5.07-11.25,11.33-11.25h162.75c22.27,0,40.39,17.1,40.39,38.12v164.93c0,6.22-5.07,11.25-11.33,11.25Z"/>
    <path d="M1583.36,450.15h-165.92c-3.75,0-6.79,3.04-6.79,6.79v140.82c0,18.25,14.79,33.04,33.04,33.04h136.36c5.66,0,10.25-4.59,10.25-10.25v-163.45c0-3.83-3.11-6.94-6.94-6.94ZM1451.48,517.61c-15.04,0-27.23-12.19-27.23-27.23s12.19-27.23,27.23-27.23,27.23,12.19,27.23,27.23-12.19,27.23-27.23,27.23Z"/>
  </g>
</svg>
